<svg version="1.1" viewBox="0.0 0.0 500.4173228346457 135.41732283464566" fill="none" stroke="none" stroke-linecap="square" stroke-miterlimit="10" xmlns:xlink="http://www.w3.org/1999/xlink" xmlns="http://www.w3.org/2000/svg"><clipPath id="p.0"><path d="m0 0l500.41733 0l0 135.41733l-500.41733 0l0 -135.41733z" clip-rule="nonzero"/></clipPath><g clip-path="url(#p.0)"><path fill="#000000" fill-opacity="0.0" d="m0 0l500.41733 0l0 135.41733l-500.41733 0z" fill-rule="evenodd"/><path fill="#000000" fill-opacity="0.0" d="m22.052494 101.05249l70.456696 0l0 46.86615l-70.456696 0z" fill-rule="evenodd"/><path fill="#000000" d="m49.645973 119.56249l-1.96875 0.15625q-0.265625 -1.171875 -0.75 -1.703125q-0.8125 -0.84375 -2.0 -0.84375q-0.953125 0 -1.671875 0.53125q-0.9375 0.671875 -1.484375 2.0q-0.53125 1.3125 -0.5625 3.75q0.71875 -1.09375 1.75 -1.625q1.046875 -0.53125 2.1875 -0.53125q2.0 0 3.390625 1.46875q1.40625 1.453125 1.40625 3.78125q0 1.5312424 -0.65625 2.8437424q-0.65625 1.296875 -1.8125 2.0q-1.15625 0.703125 -2.609375 0.703125q-2.484375 0 -4.0625 -1.828125q-1.5625 -1.84375 -1.5625 -6.0468674q0 -4.703125 1.734375 -6.828125q1.515625 -1.859375 4.078125 -1.859375q1.90625 0 3.125 1.078125q1.234375 1.0625 1.46875 2.953125zm-8.125 7.0q0 1.03125 0.4375 1.9687424q0.4375 0.9375 1.21875 1.4375q0.796875 0.484375 1.65625 0.484375q1.25 0 2.15625 -1.015625q0.921875 -1.015625 0.921875 -2.7656174q0 -1.6875 -0.90625 -2.65625q-0.890625 -0.96875 -2.25 -0.96875q-1.359375 0 -2.296875 0.96875q-0.9375 0.96875 -0.9375 2.546875zm10.397202 1.0l2.09375 -0.171875q0.23437881 1.5312424 1.0781288 2.2968674q0.84375 0.765625 2.046875 0.765625q1.4375 0 2.421875 -1.078125q1.0 -1.09375 1.0 -2.8906174q0 -1.703125 -0.953125 -2.6875q-0.953125 -0.984375 -2.5 -0.984375q-0.96875 0 -1.75 0.4375q-0.765625 0.4375 -1.21875 1.140625l-1.8593788 -0.25l1.5625 -8.328125l8.078129 0l0 1.90625l-6.484375 0l-0.875 4.359375q1.46875 -1.015625 3.078125 -1.015625q2.109375 0 3.5625 1.46875q1.46875 1.46875 1.46875 3.78125q0 2.2031174 -1.28125 3.8124924q-1.5625 1.96875 -4.25 1.96875q-2.21875 0 -3.6250038 -1.234375q-1.390625 -1.25 -1.59375 -3.2968674zm12.600327 -3.75q0 -2.875 0.59375 -4.625q0.59375 -1.75 1.75 -2.703125q1.171875 -0.953125 2.953125 -0.953125q1.296875 0 2.28125 0.53125q0.984375 0.515625 1.625 1.515625q0.640625 0.984375 1.0 2.40625q0.375 1.421875 0.375 3.828125q0 2.859375 -0.59375 4.6093674q-0.578125 1.75 -1.75 2.71875q-1.15625 0.953125 -2.9375 0.953125q-2.34375 0 -3.6875 -1.6875q-1.609375 -2.015625 -1.609375 -6.5937424zm2.046875 0q0 4.0 0.9375 5.3281174q0.9375 1.3125 2.3125 1.3125q1.359375 0 2.296875 -1.328125q0.9375 -1.3281174 0.9375 -5.3124924q0 -4.0 -0.9375 -5.3125q-0.9375 -1.328125 -2.328125 -1.328125q-1.375 0 -2.1875 1.171875q-1.03125 1.484375 -1.03125 5.46875z" fill-rule="nonzero"/><path fill="#b7b7b7" d="m46.75328 92.40551l0 0c0 -4.774872 3.8708 -8.645668 8.645668 -8.645668l0 0c2.2929764 0 4.492035 0.91088104 6.113411 2.532257c1.6213799 1.621376 2.532257 3.8204422 2.532257 6.113411l0 0c0 4.774872 -3.8707962 8.645668 -8.645668 8.645668l0 0c-4.774868 0 -8.645668 -3.8707962 -8.645668 -8.645668z" fill-rule="evenodd"/><path stroke="#000000" stroke-width="1.0" stroke-linejoin="round" stroke-linecap="butt" d="m46.75328 92.40551l0 0c0 -4.774872 3.8708 -8.645668 8.645668 -8.645668l0 0c2.2929764 0 4.492035 0.91088104 6.113411 2.532257c1.6213799 1.621376 2.532257 3.8204422 2.532257 6.113411l0 0c0 4.774872 -3.8707962 8.645668 -8.645668 8.645668l0 0c-4.774868 0 -8.645668 -3.8707962 -8.645668 -8.645668z" fill-rule="evenodd"/><path fill="#000000" fill-opacity="0.0" d="m98.66404 101.05249l70.45669 0l0 46.86615l-70.45669 0z" fill-rule="evenodd"/><path fill="#000000" d="m117.129234 131.81248l-1.984375 0l0 -12.687492q-0.71875 0.6875 -1.890625 1.375q-1.171875 0.6875 -2.09375 1.03125l0 -1.9375q1.671875 -0.78125 2.921875 -1.890625q1.25 -1.125 1.765625 -2.171875l1.28125 0l0 16.281242zm5.1003265 -7.9999924q0 -2.875 0.59375 -4.625q0.59375 -1.75 1.75 -2.703125q1.171875 -0.953125 2.953125 -0.953125q1.2968826 0 2.2812576 0.53125q0.984375 0.515625 1.625 1.515625q0.640625 0.984375 1.0 2.40625q0.375 1.421875 0.375 3.828125q0 2.859375 -0.59375 4.6093674q-0.578125 1.75 -1.75 2.71875q-1.15625 0.953125 -2.9375076 0.953125q-2.34375 0 -3.6875 -1.6875q-1.609375 -2.015625 -1.609375 -6.5937424zm2.046875 0q0 4.0 0.9375 5.3281174q0.9375 1.3125 2.3125 1.3125q1.3593826 0 2.2968826 -1.328125q0.9375 -1.3281174 0.9375 -5.3124924q0 -4.0 -0.9375 -5.3125q-0.9375 -1.328125 -2.3281326 -1.328125q-1.375 0 -2.1875 1.171875q-1.03125 1.484375 -1.03125 5.46875zm10.553459 3.75l2.09375 -0.171875q0.234375 1.5312424 1.078125 2.2968674q0.84375 0.765625 2.046875 0.765625q1.4375 0 2.421875 -1.078125q1.0 -1.09375 1.0 -2.8906174q0 -1.703125 -0.953125 -2.6875q-0.953125 -0.984375 -2.5 -0.984375q-0.96875 0 -1.75 0.4375q-0.765625 0.4375 -1.21875 1.140625l-1.859375 -0.25l1.5625 -8.328125l8.078125 0l0 1.90625l-6.484375 0l-0.875 4.359375q1.46875 -1.015625 3.078125 -1.015625q2.109375 0 3.5625 1.46875q1.46875 1.46875 1.46875 3.78125q0 2.2031174 -1.28125 3.8124924q-1.5625 1.96875 -4.25 1.96875q-2.21875 0 -3.625 -1.234375q-1.390625 -1.25 -1.59375 -3.2968674zm12.600327 -3.75q0 -2.875 0.59375 -4.625q0.59375 -1.75 1.75 -2.703125q1.171875 -0.953125 2.953125 -0.953125q1.296875 0 2.28125 0.53125q0.984375 0.515625 1.625 1.515625q0.640625 0.984375 1.0 2.40625q0.375 1.421875 0.375 3.828125q0 2.859375 -0.59375 4.6093674q-0.578125 1.75 -1.75 2.71875q-1.15625 0.953125 -2.9375 0.953125q-2.34375 0 -3.6875 -1.6875q-1.609375 -2.015625 -1.609375 -6.5937424zm2.046875 0q0 4.0 0.9375 5.3281174q0.9375 1.3125 2.3125 1.3125q1.359375 0 2.296875 -1.328125q0.9375 -1.3281174 0.9375 -5.3124924q0 -4.0 -0.9375 -5.3125q-0.9375 -1.328125 -2.328125 -1.328125q-1.375 0 -2.1875 1.171875q-1.03125 1.484375 -1.03125 5.46875z" fill-rule="nonzero"/><path fill="#000000" fill-opacity="0.0" d="m175.64699 101.05249l70.45668 0l0 46.86615l-70.45668 0z" fill-rule="evenodd"/><path fill="#000000" d="m194.11217 131.81248l-1.984375 0l0 -12.687492q-0.71875 0.6875 -1.890625 1.375q-1.171875 0.6875 -2.09375 1.03125l0 -1.9375q1.671875 -0.78125 2.921875 -1.890625q1.25 -1.125 1.765625 -2.171875l1.28125 0l0 16.281242zm11.490952 0l0 -3.8906174l-7.046875 0l0 -1.8125l7.40625 -10.515625l1.625 0l0 10.515625l2.1875153 0l0 1.8125l-2.1875153 0l0 3.8906174l-1.984375 0zm0 -5.7031174l0 -7.3125l-5.078125 7.3125l5.078125 0zm6.209717 1.453125l2.09375 -0.171875q0.234375 1.5312424 1.078125 2.2968674q0.84375 0.765625 2.046875 0.765625q1.4375 0 2.421875 -1.078125q1.0 -1.09375 1.0 -2.8906174q0 -1.703125 -0.953125 -2.6875q-0.953125 -0.984375 -2.5 -0.984375q-0.96875 0 -1.75 0.4375q-0.765625 0.4375 -1.21875 1.140625l-1.859375 -0.25l1.5625 -8.328125l8.078125 0l0 1.90625l-6.484375 0l-0.875 4.359375q1.46875 -1.015625 3.078125 -1.015625q2.109375 0 3.5625 1.46875q1.46875 1.46875 1.46875 3.78125q0 2.2031174 -1.28125 3.8124924q-1.5625 1.96875 -4.25 1.96875q-2.21875 0 -3.625 -1.234375q-1.390625 -1.25 -1.59375 -3.2968674zm12.600327 -3.75q0 -2.875 0.59375 -4.625q0.59375 -1.75 1.75 -2.703125q1.171875 -0.953125 2.953125 -0.953125q1.296875 0 2.28125 0.53125q0.984375 0.515625 1.625 1.515625q0.640625 0.984375 1.0 2.40625q0.375 1.421875 0.375 3.828125q0 2.859375 -0.59375 4.6093674q-0.578125 1.75 -1.75 2.71875q-1.15625 0.953125 -2.9375 0.953125q-2.34375 0 -3.6875 -1.6875q-1.609375 -2.015625 -1.609375 -6.5937424zm2.046875 0q0 4.0 0.9375 5.3281174q0.9375 1.3125 2.3125 1.3125q1.359375 0 2.296875 -1.328125q0.9375 -1.3281174 0.9375 -5.3124924q0 -4.0 -0.9375 -5.3125q-0.9375 -1.328125 -2.328125 -1.328125q-1.375 0 -2.1875 1.171875q-1.03125 1.484375 -1.03125 5.46875z" fill-rule="nonzero"/><path fill="#000000" fill-opacity="0.0" d="m253.0 101.05249l70.456696 0l0 46.86615l-70.456696 0z" fill-rule="evenodd"/><path fill="#000000" d="m271.46518 131.81248l-1.984375 0l0 -12.687492q-0.71875 0.6875 -1.890625 1.375q-1.171875 0.6875 -2.09375 1.03125l0 -1.9375q1.671875 -0.78125 2.921875 -1.890625q1.25 -1.125 1.765625 -2.171875l1.28125 0l0 16.281242zm8.162842 -8.796867q-1.234375 -0.453125 -1.828125 -1.296875q-0.59375 -0.84375 -0.59375 -2.015625q0 -1.765625 1.265625 -2.96875q1.265625 -1.203125 3.390625 -1.203125q2.125 0 3.40625 1.234375q1.296875 1.234375 1.296875 3.0q0 1.125 -0.59375 1.96875q-0.59375 0.828125 -1.796875 1.28125q1.5 0.484375 2.28125 1.578125q0.78125 1.078125 0.78125 2.578125q0 2.0781174 -1.484375 3.4999924q-1.46875 1.421875 -3.859375 1.421875q-2.40625 0 -3.875 -1.421875q-1.46875 -1.421875 -1.46875 -3.5468674q0 -1.578125 0.796875 -2.640625q0.796875 -1.078125 2.28125 -1.46875zm-0.390625 -3.375q0 1.15625 0.734375 1.890625q0.75 0.71875 1.921875 0.71875q1.15625 0 1.890625 -0.71875q0.734375 -0.71875 0.734375 -1.78125q0 -1.09375 -0.765625 -1.828125q-0.75 -0.75 -1.875 -0.75q-1.140625 0 -1.890625 0.734375q-0.75 0.71875 -0.75 1.734375zm-0.640625 7.5q0 0.84375 0.390625 1.6406174q0.40625 0.796875 1.203125 1.234375q0.796875 0.4375 1.71875 0.4375q1.421875 0 2.34375 -0.921875q0.9375 -0.921875 0.9375 -2.3281174q0 -1.4375 -0.953125 -2.375q-0.953125 -0.953125 -2.390625 -0.953125q-1.40625 0 -2.328125 0.9375q-0.921875 0.921875 -0.921875 2.328125zm10.569061 0.421875l2.09375 -0.171875q0.234375 1.5312424 1.078125 2.2968674q0.84375 0.765625 2.046875 0.765625q1.4375 0 2.421875 -1.078125q1.0 -1.09375 1.0 -2.8906174q0 -1.703125 -0.953125 -2.6875q-0.953125 -0.984375 -2.5 -0.984375q-0.96875 0 -1.75 0.4375q-0.765625 0.4375 -1.21875 1.140625l-1.859375 -0.25l1.5625 -8.328125l8.078125 0l0 1.90625l-6.484375 0l-0.875 4.359375q1.46875 -1.015625 3.078125 -1.015625q2.109375 0 3.5625 1.46875q1.46875 1.46875 1.46875 3.78125q0 2.2031174 -1.28125 3.8124924q-1.5625 1.96875 -4.25 1.96875q-2.21875 0 -3.625 -1.234375q-1.390625 -1.25 -1.59375 -3.2968674zm12.600342 -3.75q0 -2.875 0.59375 -4.625q0.59375 -1.75 1.75 -2.703125q1.171875 -0.953125 2.953125 -0.953125q1.296875 0 2.28125 0.53125q0.984375 0.515625 1.625 1.515625q0.640625 0.984375 1.0 2.40625q0.375 1.421875 0.375 3.828125q0 2.859375 -0.59375 4.6093674q-0.578125 1.75 -1.75 2.71875q-1.15625 0.953125 -2.9375 0.953125q-2.34375 0 -3.6875 -1.6875q-1.609375 -2.015625 -1.609375 -6.5937424zm2.046875 0q0 4.0 0.9375 5.3281174q0.9375 1.3125 2.3125 1.3125q1.359375 0 2.296875 -1.328125q0.9375 -1.3281174 0.9375 -5.3124924q0 -4.0 -0.9375 -5.3125q-0.9375 -1.328125 -2.328125 -1.328125q-1.375 0 -2.1875 1.171875q-1.03125 1.484375 -1.03125 5.46875z" fill-rule="nonzero"/><path fill="#000000" fill-opacity="0.0" d="m330.53937 101.05249l70.456696 0l0 46.86615l-70.456696 0z" fill-rule="evenodd"/><path fill="#000000" d="m351.97333 129.90623l0 1.90625l-10.71875 0q-0.03125 -0.71875 0.234375 -1.390625q0.40625 -1.09375 1.296875 -2.15625q0.90625 -1.0624924 2.609375 -2.4531174q2.65625 -2.171875 3.578125 -3.4375q0.9375 -1.265625 0.9375 -2.390625q0 -1.1875 -0.859375 -2.0q-0.84375 -0.8125 -2.203125 -0.8125q-1.4375 0 -2.296875 0.875q-0.859375 0.859375 -0.875 2.375l-2.046875 -0.203125q0.203125 -2.296875 1.578125 -3.484375q1.375 -1.203125 3.6875 -1.203125q2.328125 0 3.6875 1.296875q1.375 1.28125 1.375 3.203125q0 0.96875 -0.40625 1.921875q-0.390625 0.9375 -1.328125 1.984375q-0.921875 1.03125 -3.0625 2.84375q-1.796875 1.4999924 -2.3125 2.0468674q-0.5 0.53125 -0.828125 1.078125l7.953125 0zm12.600311 0l0 1.90625l-10.71875 0q-0.03125 -0.71875 0.234375 -1.390625q0.40625 -1.09375 1.296875 -2.15625q0.90625 -1.0624924 2.609375 -2.4531174q2.65625 -2.171875 3.578125 -3.4375q0.9375 -1.265625 0.9375 -2.390625q0 -1.1875 -0.859375 -2.0q-0.84375 -0.8125 -2.203125 -0.8125q-1.4375 0 -2.296875 0.875q-0.859375 0.859375 -0.875 2.375l-2.046875 -0.203125q0.203125 -2.296875 1.578125 -3.484375q1.375 -1.203125 3.6875 -1.203125q2.328125 0 3.6875 1.296875q1.375 1.28125 1.375 3.203125q0 0.96875 -0.40625 1.921875q-0.390625 0.9375 -1.328125 1.984375q-0.921875 1.03125 -3.0625 2.84375q-1.796875 1.4999924 -2.3125 2.0468674q-0.5 0.53125 -0.828125 1.078125l7.953125 0zm2.1315918 -2.3437424l2.09375 -0.171875q0.234375 1.5312424 1.078125 2.2968674q0.84375 0.765625 2.046875 0.765625q1.4375 0 2.421875 -1.078125q1.0 -1.09375 1.0 -2.8906174q0 -1.703125 -0.953125 -2.6875q-0.953125 -0.984375 -2.5 -0.984375q-0.96875 0 -1.75 0.4375q-0.765625 0.4375 -1.21875 1.140625l-1.859375 -0.25l1.5625 -8.328125l8.078125 0l0 1.90625l-6.484375 0l-0.875 4.359375q1.46875 -1.015625 3.078125 -1.015625q2.109375 0 3.5625 1.46875q1.46875 1.46875 1.46875 3.78125q0 2.2031174 -1.28125 3.8124924q-1.5625 1.96875 -4.25 1.96875q-2.21875 0 -3.625 -1.234375q-1.390625 -1.25 -1.59375 -3.2968674zm12.600311 -3.75q0 -2.875 0.59375 -4.625q0.59375 -1.75 1.75 -2.703125q1.171875 -0.953125 2.953125 -0.953125q1.296875 0 2.28125 0.53125q0.984375 0.515625 1.625 1.515625q0.640625 0.984375 1.0 2.40625q0.375 1.421875 0.375 3.828125q0 2.859375 -0.59375 4.6093674q-0.578125 1.75 -1.75 2.71875q-1.15625 0.953125 -2.9375 0.953125q-2.34375 0 -3.6875 -1.6875q-1.609375 -2.015625 -1.609375 -6.5937424zm2.046875 0q0 4.0 0.9375 5.3281174q0.9375 1.3125 2.3125 1.3125q1.359375 0 2.296875 -1.328125q0.9375 -1.3281174 0.9375 -5.3124924q0 -4.0 -0.9375 -5.3125q-0.9375 -1.328125 -2.328125 -1.328125q-1.375 0 -2.1875 1.171875q-1.03125 1.484375 -1.03125 5.46875z" fill-rule="nonzero"/><path fill="#000000" fill-opacity="0.0" d="m408.0761 101.05249l70.456696 0l0 46.86615l-70.456696 0z" fill-rule="evenodd"/><path fill="#000000" d="m429.51007 129.90623l0 1.90625l-10.71875 0q-0.03125 -0.71875 0.234375 -1.390625q0.40625 -1.09375 1.296875 -2.15625q0.90625 -1.0624924 2.609375 -2.4531174q2.65625 -2.171875 3.578125 -3.4375q0.9375 -1.265625 0.9375 -2.390625q0 -1.1875 -0.859375 -2.0q-0.84375 -0.8125 -2.203125 -0.8125q-1.4375 0 -2.296875 0.875q-0.859375 0.859375 -0.875 2.375l-2.046875 -0.203125q0.203125 -2.296875 1.578125 -3.484375q1.375 -1.203125 3.6875 -1.203125q2.328125 0 3.6875 1.296875q1.375 1.28125 1.375 3.203125q0 0.96875 -0.40625 1.921875q-0.390625 0.9375 -1.328125 1.984375q-0.921875 1.03125 -3.0625 2.84375q-1.796875 1.4999924 -2.3125 2.0468674q-0.5 0.53125 -0.828125 1.078125l7.953125 0zm12.459686 -10.343742l-1.96875 0.15625q-0.265625 -1.171875 -0.75 -1.703125q-0.8125 -0.84375 -2.0 -0.84375q-0.953125 0 -1.671875 0.53125q-0.9375 0.671875 -1.484375 2.0q-0.53125 1.3125 -0.5625 3.75q0.71875 -1.09375 1.75 -1.625q1.046875 -0.53125 2.1875 -0.53125q2.0 0 3.390625 1.46875q1.40625 1.453125 1.40625 3.78125q0 1.5312424 -0.65625 2.8437424q-0.65625 1.296875 -1.8125 2.0q-1.15625 0.703125 -2.609375 0.703125q-2.484375 0 -4.0625 -1.828125q-1.5625 -1.84375 -1.5625 -6.0468674q0 -4.703125 1.734375 -6.828125q1.515625 -1.859375 4.078125 -1.859375q1.90625 0 3.125 1.078125q1.234375 1.0625 1.46875 2.953125zm-8.125 7.0q0 1.03125 0.4375 1.9687424q0.4375 0.9375 1.21875 1.4375q0.796875 0.484375 1.65625 0.484375q1.25 0 2.15625 -1.015625q0.921875 -1.015625 0.921875 -2.7656174q0 -1.6875 -0.90625 -2.65625q-0.890625 -0.96875 -2.25 -0.96875q-1.359375 0 -2.296875 0.96875q-0.9375 0.96875 -0.9375 2.546875zm10.397217 1.0l2.09375 -0.171875q0.234375 1.5312424 1.078125 2.2968674q0.84375 0.765625 2.046875 0.765625q1.4375 0 2.421875 -1.078125q1.0 -1.09375 1.0 -2.8906174q0 -1.703125 -0.953125 -2.6875q-0.953125 -0.984375 -2.5 -0.984375q-0.96875 0 -1.75 0.4375q-0.765625 0.4375 -1.21875 1.140625l-1.859375 -0.25l1.5625 -8.328125l8.078125 0l0 1.90625l-6.484375 0l-0.875 4.359375q1.46875 -1.015625 3.078125 -1.015625q2.109375 0 3.5625 1.46875q1.46875 1.46875 1.46875 3.78125q0 2.2031174 -1.28125 3.8124924q-1.5625 1.96875 -4.25 1.96875q-2.21875 0 -3.625 -1.234375q-1.390625 -1.25 -1.59375 -3.2968674zm12.600311 -3.75q0 -2.875 0.59375 -4.625q0.59375 -1.75 1.75 -2.703125q1.171875 -0.953125 2.953125 -0.953125q1.296875 0 2.28125 0.53125q0.984375 0.515625 1.625 1.515625q0.640625 0.984375 1.0 2.40625q0.375 1.421875 0.375 3.828125q0 2.859375 -0.59375 4.6093674q-0.578125 1.75 -1.75 2.71875q-1.15625 0.953125 -2.9375 0.953125q-2.34375 0 -3.6875 -1.6875q-1.609375 -2.015625 -1.609375 -6.5937424zm2.046875 0q0 4.0 0.9375 5.3281174q0.9375 1.3125 2.3125 1.3125q1.359375 0 2.296875 -1.328125q0.9375 -1.3281174 0.9375 -5.3124924q0 -4.0 -0.9375 -5.3125q-0.9375 -1.328125 -2.328125 -1.328125q-1.375 0 -2.1875 1.171875q-1.03125 1.484375 -1.03125 5.46875z" fill-rule="nonzero"/><path fill="#000000" fill-opacity="0.0" d="m117.06628 -13.902887l266.4567 0l0 63.02362l-266.4567 0z" fill-rule="evenodd"/><path fill="#000000" d="m154.86201 21.37586l3.203125 -0.28125q0.234375 1.9375 1.0625 3.171875q0.84375 1.234375 2.59375 2.0q1.765625 0.765625 3.96875 0.765625q1.9375 0 3.4375 -0.578125q1.5 -0.578125 2.21875 -1.578125q0.734375 -1.015625 0.734375 -2.21875q0 -1.203125 -0.703125 -2.109375q-0.703125 -0.90625 -2.3125 -1.53125q-1.046875 -0.40625 -4.59375 -1.25q-3.546875 -0.859375 -4.96875 -1.609375q-1.859375 -0.96875 -2.765625 -2.390625q-0.890625 -1.4375 -0.890625 -3.21875q0 -1.953125 1.09375 -3.640625q1.109375 -1.703125 3.234375 -2.578125q2.140625 -0.87499976 4.734375 -0.87499976q2.859375 0 5.046875 0.92187476q2.203125 0.921875 3.375 2.71875q1.171875 1.78125 1.265625 4.046875l-3.265625 0.25q-0.265625 -2.4375 -1.796875 -3.6875q-1.515625 -1.25 -4.484375 -1.25q-3.09375 0 -4.515625 1.140625q-1.40625 1.125 -1.40625 2.71875q0 1.390625 1.0 2.296875q0.984375 0.890625 5.140625 1.828125q4.15625 0.9375 5.703125 1.640625q2.25 1.046875 3.3125 2.640625q1.078125 1.578125 1.078125 3.65625q0 2.0625 -1.171875 3.890625q-1.171875 1.8125 -3.390625 2.828125q-2.203125 1.0 -4.953125 1.0q-3.5 0 -5.875 -1.015625q-2.359375 -1.015625 -3.703125 -3.0625q-1.34375 -2.0625 -1.40625 -4.640625zm24.777344 -13.84375l0 -3.6406248l3.171875 0l0 3.6406248l-3.171875 0zm0 22.125l0 -18.671875l3.171875 0l0 18.671875l-3.171875 0zm7.404297 1.546875l3.078125 0.453125q0.1875 1.4218769 1.0625 2.078127q1.1875 0.875 3.21875 0.875q2.203125 0 3.390625 -0.875q1.203125 -0.875 1.625 -2.453127q0.25 -0.96875 0.21875 -4.0625q-2.0625 2.4375 -5.15625 2.4375q-3.859375 0 -5.96875 -2.78125q-2.109375 -2.78125 -2.109375 -6.65625q0 -2.671875 0.96875 -4.921875q0.96875 -2.265625 2.796875 -3.5q1.84375 -1.234375 4.328125 -1.234375q3.296875 0 5.453125 2.671875l0 -2.25l2.90625 0l0 16.140625q0 4.359375 -0.890625 6.171877q-0.875 1.828125 -2.8125 2.875q-1.921875 1.0625 -4.734375 1.0625q-3.328125 0 -5.390625 -1.5q-2.0625 -1.5 -1.984375 -4.531252zm2.609375 -11.21875q0 3.671875 1.453125 5.359375q1.46875 1.6875 3.671875 1.6875q2.171875 0 3.640625 -1.671875q1.484375 -1.6875 1.484375 -5.265625q0 -3.421875 -1.515625 -5.15625q-1.515625 -1.75 -3.671875 -1.75q-2.109375 0 -3.59375 1.71875q-1.46875 1.703125 -1.46875 5.078125zm17.990234 9.671875l0 -18.671875l2.84375 0l0 2.65625q2.0625 -3.078125 5.9375 -3.078125q1.6875 0 3.109375 0.609375q1.421875 0.609375 2.125 1.59375q0.703125 0.984375 0.984375 2.328125q0.171875 0.890625 0.171875 3.078125l0 11.484375l-3.171875 0l0 -11.359375q0 -1.9375 -0.375 -2.890625q-0.359375 -0.953125 -1.296875 -1.515625q-0.9375 -0.578125 -2.203125 -0.578125q-2.03125 0 -3.5 1.28125q-1.46875 1.28125 -1.46875 4.859375l0 10.203125l-3.15625 0zm20.03711 -22.125l0 -3.6406248l3.171875 0l0 3.6406248l-3.171875 0zm0 22.125l0 -18.671875l3.171875 0l0 18.671875l-3.171875 0zm8.732422 0l0 -16.203125l-2.796875 0l0 -2.46875l2.796875 0l0 -1.984375q0 -1.875 0.34375 -2.796875q0.453125 -1.234375 1.59375 -1.984375q1.15625 -0.76562476 3.234375 -0.76562476q1.34375 0 2.953125 0.3125l-0.46875 2.7499998q-0.984375 -0.171875 -1.875 -0.171875q-1.4375 0 -2.03125 0.625q-0.59375 0.609375 -0.59375 2.296875l0 1.71875l3.640625 0l0 2.46875l-3.640625 0l0 16.203125l-3.15625 0zm9.267578 -22.125l0 -3.6406248l3.171875 0l0 3.6406248l-3.171875 0zm0 22.125l0 -18.671875l3.171875 0l0 18.671875l-3.171875 0zm20.169907 -6.84375l3.109375 0.40625q-0.515625 3.21875 -2.625 5.046875q-2.09375 1.8125 -5.15625 1.8125q-3.828125 0 -6.1562347 -2.5q-2.328125 -2.515625 -2.328125 -7.1875q0 -3.015625 1.0 -5.28125q1.0 -2.28125 3.0468597 -3.40625q2.046875 -1.140625 4.46875 -1.140625q3.03125 0 4.96875 1.546875q1.9375 1.53125 2.484375 4.359375l-3.078125 0.484375q-0.4375 -1.890625 -1.5625 -2.828125q-1.109375 -0.953125 -2.703125 -0.953125q-2.390625 0 -3.890625 1.71875q-1.4843597 1.703125 -1.4843597 5.40625q0 3.765625 1.4374847 5.46875q1.453125 1.703125 3.765625 1.703125q1.859375 0 3.109375 -1.140625q1.25 -1.140625 1.59375 -3.515625zm18.0 4.546875q-1.765625 1.484375 -3.390625 2.109375q-1.625 0.609375 -3.484375 0.609375q-3.078125 0 -4.734375 -1.5q-1.65625 -1.5 -1.65625 -3.84375q0 -1.375 0.625 -2.5q0.625 -1.140625 1.640625 -1.828125q1.015625 -0.6875 2.28125 -1.03125q0.921875 -0.25 2.8125 -0.484375q3.828125 -0.453125 5.640625 -1.078125q0.015625 -0.65625 0.015625 -0.828125q0 -1.9375 -0.90625 -2.734375q-1.203125 -1.0625 -3.59375 -1.0625q-2.234375 0 -3.296875 0.78125q-1.0625 0.78125 -1.578125 2.765625l-3.09375 -0.421875q0.421875 -1.984375 1.390625 -3.203125q0.96875 -1.21875 2.796875 -1.875q1.828125 -0.671875 4.234375 -0.671875q2.390625 0 3.875 0.5625q1.5 0.5625 2.203125 1.421875q0.703125 0.84375 0.984375 2.15625q0.15625 0.796875 0.15625 2.90625l0 4.21875q0 4.421875 0.203125 5.59375q0.203125 1.15625 0.8125 2.234375l-3.3125 0q-0.484375 -0.984375 -0.625 -2.296875zm-0.265625 -7.078125q-1.734375 0.703125 -5.171875 1.203125q-1.953125 0.28125 -2.765625 0.640625q-0.796875 0.34375 -1.25 1.015625q-0.4375 0.671875 -0.4375 1.5q0 1.265625 0.953125 2.109375q0.96875 0.84375 2.8125 0.84375q1.828125 0 3.25 -0.796875q1.421875 -0.796875 2.09375 -2.1875q0.515625 -1.078125 0.515625 -3.15625l0 -1.171875zm8.099609 9.375l0 -18.671875l2.84375 0l0 2.65625q2.0625 -3.078125 5.9375 -3.078125q1.6875 0 3.109375 0.609375q1.421875 0.609375 2.125 1.59375q0.703125 0.984375 0.984375 2.328125q0.171875 0.890625 0.171875 3.078125l0 11.484375l-3.171875 0l0 -11.359375q0 -1.9375 -0.375 -2.890625q-0.359375 -0.953125 -1.296875 -1.515625q-0.9375 -0.578125 -2.203125 -0.578125q-2.03125 0 -3.5 1.28125q-1.46875 1.28125 -1.46875 4.859375l0 10.203125l-3.15625 0zm32.208984 -6.84375l3.109375 0.40625q-0.515625 3.21875 -2.625 5.046875q-2.09375 1.8125 -5.15625 1.8125q-3.828125 0 -6.15625 -2.5q-2.328125 -2.515625 -2.328125 -7.1875q0 -3.015625 1.0 -5.28125q1.0 -2.28125 3.046875 -3.40625q2.046875 -1.140625 4.46875 -1.140625q3.03125 0 4.96875 1.546875q1.9375 1.53125 2.484375 4.359375l-3.078125 0.484375q-0.4375 -1.890625 -1.5625 -2.828125q-1.109375 -0.953125 -2.703125 -0.953125q-2.390625 0 -3.890625 1.71875q-1.484375 1.703125 -1.484375 5.40625q0 3.765625 1.4375 5.46875q1.453125 1.703125 3.765625 1.703125q1.859375 0 3.109375 -1.140625q1.25 -1.140625 1.59375 -3.515625zm18.59375 0.828125l3.265625 0.40625q-0.765625 2.859375 -2.859375 4.453125q-2.09375 1.578125 -5.34375 1.578125q-4.09375 0 -6.5 -2.515625q-2.40625 -2.53125 -2.40625 -7.078125q0 -4.71875 2.421875 -7.3125q2.4375 -2.609375 6.296875 -2.609375q3.75 0 6.125 2.546875q2.375 2.546875 2.375 7.171875q0 0.28125 -0.015625 0.84375l-13.921875 0q0.171875 3.078125 1.734375 4.71875q1.5625 1.625 3.90625 1.625q1.734375 0 2.96875 -0.90625q1.234375 -0.921875 1.953125 -2.921875zm-10.390625 -5.109375l10.421875 0q-0.203125 -2.359375 -1.1875 -3.53125q-1.515625 -1.828125 -3.921875 -1.828125q-2.1875 0 -3.671875 1.453125q-1.484375 1.453125 -1.640625 3.90625z" fill-rule="nonzero"/><path fill="#b7b7b7" d="m120.51523 88.09055l0 0c0 -7.157959 5.8026733 -12.960632 12.960632 -12.960632l0 0c3.437378 0 6.733963 1.3654938 9.164551 3.7960815c2.4305878 2.4305878 3.7960815 5.727173 3.7960815 9.164551l0 0c0 7.157959 -5.8026733 12.960625 -12.960632 12.960625l0 0c-7.157959 0 -12.960632 -5.8026657 -12.960632 -12.960625z" fill-rule="evenodd"/><path stroke="#000000" stroke-width="1.0" stroke-linejoin="round" stroke-linecap="butt" d="m120.51523 88.09055l0 0c0 -7.157959 5.8026733 -12.960632 12.960632 -12.960632l0 0c3.437378 0 6.733963 1.3654938 9.164551 3.7960815c2.4305878 2.4305878 3.7960815 5.727173 3.7960815 9.164551l0 0c0 7.157959 -5.8026733 12.960625 -12.960632 12.960625l0 0c-7.157959 0 -12.960632 -5.8026657 -12.960632 -12.960625z" fill-rule="evenodd"/><path fill="#b7b7b7" d="m191.905 83.7769l0 0c0 -9.541046 7.734543 -17.275589 17.275589 -17.275589l0 0c4.581772 0 8.975876 1.8200989 12.215683 5.059906c3.2398071 3.2397995 5.059906 7.633911 5.059906 12.215683l0 0c0 9.541046 -7.734543 17.275589 -17.275589 17.275589l0 0c-9.541046 0 -17.275589 -7.734543 -17.275589 -17.275589z" fill-rule="evenodd"/><path stroke="#000000" stroke-width="1.0" stroke-linejoin="round" stroke-linecap="butt" d="m191.905 83.7769l0 0c0 -9.541046 7.734543 -17.275589 17.275589 -17.275589l0 0c4.581772 0 8.975876 1.8200989 12.215683 5.059906c3.2398071 3.2397995 5.059906 7.633911 5.059906 12.215683l0 0c0 9.541046 -7.734543 17.275589 -17.275589 17.275589l0 0c-9.541046 0 -17.275589 -7.734543 -17.275589 -17.275589z" fill-rule="evenodd"/><path fill="#b7b7b7" d="m269.3945 79.444885l0 0c0 -11.932831 9.673462 -21.606304 21.606293 -21.606304l0 0c5.7303467 0 11.225983 2.2763748 15.277954 6.3283424c4.0519714 4.051964 6.3283386 9.547615 6.3283386 15.277962l0 0c0 11.932823 -9.673462 21.606293 -21.606293 21.606293l0 0c-11.932831 0 -21.606293 -9.67347 -21.606293 -21.606293z" fill-rule="evenodd"/><path stroke="#000000" stroke-width="1.0" stroke-linejoin="round" stroke-linecap="butt" d="m269.3945 79.444885l0 0c0 -11.932831 9.673462 -21.606304 21.606293 -21.606304l0 0c5.7303467 0 11.225983 2.2763748 15.277954 6.3283424c4.0519714 4.051964 6.3283386 9.547615 6.3283386 15.277962l0 0c0 11.932823 -9.673462 21.606293 -21.606293 21.606293l0 0c-11.932831 0 -21.606293 -9.67347 -21.606293 -21.606293z" fill-rule="evenodd"/><path fill="#b7b7b7" d="m337.96536 75.13123l0 0c0 -14.315918 11.605347 -25.92126 25.921265 -25.92126l0 0c6.8747253 0 13.467926 2.7309837 18.329102 7.592163c4.8611755 4.8611794 7.592163 11.4543495 7.592163 18.329098l0 0c0 14.315918 -11.605347 25.921257 -25.921265 25.921257l0 0c-14.315918 0 -25.921265 -11.605339 -25.921265 -25.921257z" fill-rule="evenodd"/><path stroke="#000000" stroke-width="1.0" stroke-linejoin="round" stroke-linecap="butt" d="m337.96536 75.13123l0 0c0 -14.315918 11.605347 -25.92126 25.921265 -25.92126l0 0c6.8747253 0 13.467926 2.7309837 18.329102 7.592163c4.8611755 4.8611794 7.592163 11.4543495 7.592163 18.329098l0 0c0 14.315918 -11.605347 25.921257 -25.921265 25.921257l0 0c-14.315918 0 -25.921265 -11.605339 -25.921265 -25.921257z" fill-rule="evenodd"/><path fill="#b7b7b7" d="m411.52704 70.81628l0 0c0 -16.699009 13.537231 -30.236225 30.236237 -30.236225l0 0c8.0191345 0 15.709839 3.1855927 21.380219 8.855984c5.67041 5.670391 8.855988 13.361095 8.855988 21.380241l0 0c0 16.698997 -13.537201 30.236214 -30.236206 30.236214l0 0c-16.699005 0 -30.236237 -13.537216 -30.236237 -30.236214z" fill-rule="evenodd"/><path stroke="#000000" stroke-width="1.0" stroke-linejoin="round" stroke-linecap="butt" d="m411.52704 70.81628l0 0c0 -16.699009 13.537231 -30.236225 30.236237 -30.236225l0 0c8.0191345 0 15.709839 3.1855927 21.380219 8.855984c5.67041 5.670391 8.855988 13.361095 8.855988 21.380241l0 0c0 16.698997 -13.537201 30.236214 -30.236206 30.236214l0 0c-16.699005 0 -30.236237 -13.537216 -30.236237 -30.236214z" fill-rule="evenodd"/></g></svg>